<?xml version="1.0" encoding="UTF-8" standalone="no"?>
<svg width="169px" height="24px" viewBox="0 0 169 24" version="1.1" xmlns="http://www.w3.org/2000/svg" xmlns:xlink="http://www.w3.org/1999/xlink">
    <!-- Generator: Sketch 3.8.3 (29802) - http://www.bohemiancoding.com/sketch -->
    <title>Group</title>
    <desc>Created with Sketch.</desc>
    <defs></defs>
    <g id="Page-1" stroke="none" stroke-width="1" fill="none" fill-rule="evenodd">
        <g id="Desktop-HD" transform="translate(-119.000000, -88.000000)" fill="#0A615C">
            <g id="Group" transform="translate(119.000000, 88.000000)">
                <path d="M126.365909,8.94444444 C124.814182,8.94444444 123.662607,9.41736111 122.847636,10.3923611 C122.027079,11.36875 121.611562,12.8451389 121.611562,14.7895833 C121.611562,16.7083333 122.032665,18.1770833 122.863,19.1506944 C123.689145,20.1243056 124.837926,20.6006944 126.365909,20.6006944 C127.893893,20.6006944 129.032198,20.1243056 129.839488,19.1548611 C130.651665,18.1770833 131.0595,16.7083333 131.0595,14.7895833 C131.0595,12.8451389 130.64119,11.36875 129.824822,10.3923611 C129.007058,9.41736111 127.877132,8.94444444 126.365909,8.94444444 M126.335182,23.5979167 C124.830942,23.5979167 123.532715,23.3701389 122.478909,22.9236111 C121.420215,22.4722222 120.540996,21.8430556 119.878264,21.0458333 C119.230198,20.2555556 118.756719,19.3111111 118.462017,18.2388889 C118.173599,17.1756944 118.020661,16.01875 118.020661,14.7895833 C118.020661,13.5541667 118.191058,12.3840278 118.525566,11.3118056 C118.868455,10.2319444 119.396405,9.27847222 120.089165,8.49027778 C120.788211,7.69930556 121.67162,7.07083333 122.718442,6.62152778 C123.765264,6.17430556 124.990165,5.94444444 126.365909,5.94444444 C127.781459,5.94444444 129.032198,6.17430556 130.082512,6.62152778 C131.128636,7.07083333 132.005062,7.70208333 132.680364,8.49444444 C133.351475,9.28263889 133.858475,10.2270833 134.188793,11.2979167 C134.516318,12.3618056 134.686017,13.5236111 134.686017,14.7534722 C134.686017,15.9854167 134.528888,17.1520833 134.223711,18.2222222 C133.917136,19.3083333 133.419215,20.2597222 132.743215,21.0493056 C132.068612,21.8430556 131.184504,22.4722222 130.124413,22.9236111 C129.072702,23.3701389 127.794029,23.5979167 126.335182,23.5979167" id="Fill-1"></path>
                <path d="M144.522236,8.94444444 C142.973302,8.94444444 141.823124,9.41736111 141.004661,10.3923611 C140.184802,11.36875 139.770682,12.8451389 139.770682,14.7895833 C139.770682,16.7083333 140.191785,18.1770833 141.022818,19.1506944 C141.847566,20.1243056 142.996347,20.6006944 144.522236,20.6006944 C146.053012,20.6006944 147.189921,20.1243056 147.997909,19.1548611 C148.8045,18.1770833 149.215128,16.7083333 149.215128,14.7895833 C149.215128,12.8451389 148.801008,11.36875 147.981847,10.3923611 C147.164083,9.41736111 146.034855,8.94444444 144.522236,8.94444444 M144.492905,23.5979167 C142.992157,23.5979167 141.691835,23.3701389 140.635236,22.9236111 C139.576541,22.4708333 138.698021,21.8430556 138.033893,21.0458333 C137.390017,20.2569444 136.917934,19.3125 136.619041,18.2388889 C136.322244,17.1756944 136.177686,16.01875 136.177686,14.7895833 C136.177686,13.5520833 136.350178,12.3840278 136.685384,11.3118056 C137.027574,10.2319444 137.55343,9.28263889 138.24619,8.49027778 C138.946632,7.69930556 139.827946,7.07083333 140.875467,6.62152778 C141.922988,6.17430556 143.149983,5.94444444 144.522236,5.94444444 C145.942674,5.94444444 147.189921,6.17430556 148.23814,6.62152778 C149.287058,7.07083333 150.162087,7.70208333 150.834595,8.49444444 C151.5085,9.28263889 152.018992,10.2270833 152.347913,11.2979167 C152.674041,12.3618056 152.840946,13.5236111 152.840946,14.7534722 C152.840946,15.9854167 152.684517,17.1520833 152.381434,18.2222222 C152.074161,19.3083333 151.57624,20.2597222 150.903731,21.0493056 C150.226335,21.8430556 149.345021,22.4722222 148.28493,22.9236111 C147.228331,23.3701389 145.953847,23.5979167 144.492905,23.5979167" id="Fill-3"></path>
                <path d="M166.919275,23.7674306 L166.919275,23.7674306 C166.531692,23.7674306 166.164362,23.6125694 165.89899,23.3410417 L160.193494,17.4702083 C159.865969,17.1278472 159.574758,16.8792361 159.323353,16.7361806 C159.087312,16.6021528 158.721378,16.5327083 158.23882,16.5327083 L157.997192,16.5327083 L157.997192,22.3667361 C157.997192,23.1215972 157.38125,23.7327083 156.621448,23.7327083 L155.842791,23.7327083 C155.085783,23.7327083 154.469143,23.1215972 154.469143,22.3667361 L154.469143,1.586875 C154.469143,0.830625 155.085783,0.216041667 155.842791,0.216041667 L156.621448,0.216041667 C157.38125,0.216041667 157.997192,0.830625 157.997192,1.586875 L157.997192,13.4063194 C158.423882,13.4021528 158.759787,13.3646528 158.994432,13.2903472 C159.225585,13.2195139 159.465816,13.0521528 159.708841,12.793125 L164.324915,7.53756944 C164.605651,7.224375 165.009295,7.04590278 165.447159,7.04590278 C165.762812,7.04590278 166.061006,7.13965278 166.308919,7.32298611 L166.807539,7.68548611 C167.10713,7.90284722 167.291494,8.21743056 167.330601,8.57229167 C167.366217,8.92784722 167.247498,9.27576389 167.003775,9.54590278 L162.3032,14.755625 L168.412341,21.0799306 C168.663746,21.343125 168.799225,21.6896528 168.78456,22.0514583 C168.769895,22.4139583 168.61137,22.7479861 168.338316,22.993125 L167.86344,23.4139583 C167.606448,23.6424306 167.27194,23.7674306 166.919275,23.7674306" id="Fill-5"></path>
                <path d="M105.246496,9.70555556 C105.204595,9.70555556 105.165488,9.71388889 105.12638,9.71666667 L105.032103,9.71666667 L105.032103,9.72777778 C104.313504,9.83055556 103.76181,10.4409722 103.76181,11.1819444 L103.76181,11.3708333 C103.76181,12.1104167 104.313504,12.71875 105.032103,12.8236111 L105.032103,12.8444444 L105.246496,12.8444444 L106.154347,12.8444444 L106.720008,12.8444444 C107.266814,12.8444444 107.770322,12.8534722 108.216566,12.8763889 C108.64186,12.8958333 109.078326,12.9784722 109.525967,13.1215278 C109.87095,13.2236111 110.202665,13.3666667 110.526,13.5534722 C110.833273,13.7388889 111.111913,13.98125 111.343764,14.2708333 C111.585393,14.5659722 111.78093,14.9138889 111.929678,15.3118056 C112.078426,15.7020833 112.153149,16.1618056 112.153149,16.68125 C112.153149,18.0625 111.750202,19.0097222 110.924058,19.5770833 C110.07836,20.1583333 108.966591,20.4541667 107.620876,20.4541667 L101.458661,20.4541667 L101.458661,3.06527778 L105.634777,3.06527778 C107.309413,3.06527778 108.64186,3.30763889 109.578343,3.78402778 C110.472227,4.23819444 110.905202,5.0375 110.905202,6.23263889 C110.905202,6.86736111 110.795562,7.41041667 110.577678,7.84652778 C110.362587,8.28263889 110.062996,8.64166667 109.687285,8.90902778 C109.303194,9.18472222 108.835302,9.38819444 108.294083,9.51875 C107.742388,9.65 107.136223,9.71666667 106.502124,9.71666667 L106.154347,9.71666667 L106.154347,9.70555556 L105.246496,9.70555556 Z M115.49893,14.3125 C115.209814,13.6298611 114.841087,13.0368056 114.410207,12.5493056 C113.974438,12.0618056 113.481405,11.6604167 112.949264,11.3597222 C112.619645,11.1791667 112.297008,11.0229167 111.982054,10.8923611 C112.21181,10.7444444 112.433884,10.5756944 112.651769,10.3895833 C113.042843,10.05625 113.389223,9.66944444 113.683227,9.23194444 C113.968851,8.80138889 114.203496,8.32569444 114.383669,7.82013889 C114.565938,7.30347222 114.655326,6.76041667 114.655326,6.20138889 C114.655326,5.05277778 114.428364,4.07361111 113.980723,3.27708333 C113.528893,2.48888889 112.913649,1.83819444 112.142674,1.35 C111.377983,0.868055556 110.493876,0.51875 109.504318,0.308333333 C108.532219,0.104861111 107.484698,0 106.40645,0 L101.458661,0 L100.906967,0 L99.1443388,0 C98.3838388,0 97.768595,0.614583333 97.768595,1.37083333 L97.768595,22.15 C97.768595,22.9055556 98.3838388,23.5166667 99.1443388,23.5166667 L100.906967,23.5166667 L101.458661,23.5166667 L107.972145,23.5166667 C109.152351,23.5166667 110.234091,23.3673611 111.192223,23.075 C112.165021,22.7798611 113.010719,22.3326389 113.708368,21.7479167 C114.410207,21.1611111 114.961901,20.4388889 115.352975,19.5972222 C115.739161,18.7604167 115.936095,17.7881944 115.936095,16.7104167 C115.936095,15.8097222 115.79014,15.0027778 115.49893,14.3125 L115.49893,14.3125 Z" id="Fill-8"></path>
                <path d="M25.806719,8.94444444 C24.2549917,8.94444444 23.1034174,9.41736111 22.2884463,10.3923611 C21.4664917,11.36875 21.0530702,12.8451389 21.0530702,14.7895833 C21.0530702,16.7083333 21.4734752,18.1770833 22.3010165,19.1506944 C23.1285579,20.1243056 24.2759421,20.6006944 25.806719,20.6006944 C27.3374959,20.6006944 28.4702149,20.1243056 29.2768058,19.1548611 C30.0847934,18.1770833 30.4982149,16.7083333 30.4982149,14.7895833 C30.4982149,12.8451389 30.082,11.36875 29.2628388,10.3923611 C28.4450744,9.41736111 27.3193388,8.94444444 25.806719,8.94444444 M25.774595,23.5979167 C24.2703554,23.5979167 22.9749215,23.3701389 21.9190207,22.9236111 C20.8575331,22.4722222 19.9804091,21.8430556 19.3169793,21.0458333 C18.6710083,20.2555556 18.1975289,19.3111111 17.9028264,18.2388889 C17.608124,17.1756944 17.4586777,16.01875 17.4586777,14.7895833 C17.4586777,13.5520833 17.6276777,12.3840278 17.966376,11.3118056 C18.3085661,10.2319444 18.8365165,9.27847222 19.5299752,8.49027778 C20.2227355,7.69930556 21.1096364,7.07083333 22.1599504,6.62152778 C23.2060744,6.17430556 24.4316736,5.94444444 25.806719,5.94444444 C27.2243636,5.94444444 28.4702149,6.17430556 29.5205289,6.62152778 C30.5680496,7.07083333 31.4430785,7.70208333 32.1169835,8.49444444 C32.7922851,9.28263889 33.2971901,10.2298611 33.6323967,11.2979167 C33.9571281,12.3618056 34.1240331,13.5236111 34.1240331,14.7534722 C34.1240331,15.9854167 33.9683017,17.1520833 33.663124,18.2222222 C33.3565496,19.3083333 32.8565331,20.2597222 32.1812314,21.0493056 C31.5052314,21.8430556 30.6260124,22.4722222 29.5680165,22.9236111 C28.510719,23.3701389 27.2355372,23.5979167 25.774595,23.5979167" id="Fill-10"></path>
                <path d="M64.827562,23.5513889 L64.827562,23.5513889 C64.4399793,23.5513889 64.0684587,23.3965278 63.8051818,23.125 L58.099686,17.2541667 C57.7749545,16.9118056 57.4802521,16.6631944 57.2288471,16.5201389 C56.9955992,16.3861111 56.6324587,16.3166667 56.1492025,16.3166667 L55.9054793,16.3166667 L55.9054793,22.1506944 C55.9054793,22.9055556 55.2895372,23.5166667 54.5269421,23.5166667 L53.7510785,23.5166667 C52.9905785,23.5166667 52.3760331,22.9055556 52.3760331,22.1506944 L52.3760331,1.37083333 C52.3760331,0.614583333 52.9905785,0 53.7510785,0 L54.5269421,0 C55.2895372,0 55.9054793,0.614583333 55.9054793,1.37083333 L55.9054793,13.1902778 C56.3279793,13.1861111 56.667376,13.1486111 56.900624,13.0743056 C57.1310785,13.0034722 57.3713099,12.8361111 57.6171281,12.5770833 L62.2325041,7.32152778 C62.5083512,7.00833333 62.9140909,6.82986111 63.3526529,6.82986111 C63.6697025,6.82986111 63.9658017,6.92361111 64.2130165,7.10694444 L64.7158264,7.46944444 C65.012624,7.68680556 65.201876,8.00138889 65.2395868,8.35625 C65.2745041,8.71180556 65.1564835,9.05972222 64.9085702,9.32986111 L60.2107893,14.5395833 L66.3178347,20.8638889 C66.5755248,21.1277778 66.7061157,21.4736111 66.6900537,21.8354167 C66.6760868,22.1979167 66.519657,22.5319444 66.2438099,22.7770833 L65.7689339,23.1979167 C65.5140372,23.4263889 65.1781322,23.5513889 64.827562,23.5513889" id="Fill-12"></path>
                <path d="M16.2714876,4.12916667 C15.8371157,3.17083333 15.246314,2.37152778 14.4983843,1.75277778 C13.7567397,1.13958333 12.8817107,0.686805556 11.8991364,0.411111111 C10.9270372,0.138194444 9.88440496,0 8.79358678,0 L3.68866942,0 L3.14116529,0 L1.37295041,0 C0.617338843,0 0,0.613888889 0,1.37083333 L0,22.15 C0,22.9048611 0.617338843,23.5159722 1.37295041,23.5159722 L2.31432231,23.5159722 C3.07412397,23.5159722 3.68866942,22.9048611 3.68866942,22.15 L3.68866942,3.03333333 L8.02889669,3.03333333 C8.6916281,3.03333333 9.34178926,3.0875 9.96680992,3.19027778 C10.5659917,3.28819444 11.1051157,3.49861111 11.5716116,3.81180556 C12.031124,4.12361111 12.4005496,4.57916667 12.6777934,5.16944444 C12.9599256,5.76875 13.0981983,6.575 13.0981983,7.56875 C13.0981983,8.40972222 12.9536405,9.11805556 12.6554463,9.67361111 C12.3572521,10.2263889 11.9689711,10.6798611 11.5129504,11.0111111 C11.053438,11.3472222 10.5171074,11.5923611 9.91792562,11.7305556 C9.30058678,11.875 8.67277273,11.9472222 8.05962397,11.9472222 L7.9904876,11.9472222 L7.1098719,11.9472222 L6.98905785,11.9472222 L6.98905785,11.9583333 C6.25719008,12.01875 5.67267355,12.6270833 5.67267355,13.3736111 L5.67267355,13.5534722 C5.67267355,14.3013889 6.25719008,14.9055556 6.98905785,14.9666667 L6.98905785,14.9763889 L7.1098719,14.9763889 L7.9904876,14.9763889 L8.57221074,14.9763889 C9.75102066,14.9763889 10.8627893,14.7972222 11.8670124,14.4375 C12.8740289,14.0784722 13.7644215,13.5659722 14.5053678,12.9194444 C15.246314,12.2708333 15.8371157,11.4854167 16.2686942,10.5826389 C16.7002727,9.68333333 16.9216488,8.66805556 16.9216488,7.56875 C16.9216488,6.24166667 16.7002727,5.08472222 16.2714876,4.12916667" id="Fill-14"></path>
                <path d="M79.6506777,11.9743056 C79.6716281,12.1222222 79.6800083,12.2166667 79.681405,12.2166667 C79.681405,12.2555556 79.6883884,12.2958333 79.6988636,12.3340278 C79.7233058,12.5513889 79.7428595,12.7763889 79.7505413,13.0173611 L75.2846116,13.0173611 L71.4904917,13.0173611 C71.6294628,11.8208333 72.0435826,10.8493056 72.7328512,10.1152778 C73.3690455,9.44444444 74.2510579,9.05833333 75.3670165,8.96944444 L75.5814091,8.95486111 C75.6847645,8.95208333 75.7888182,8.94444444 75.8977603,8.94444444 C76.4410744,8.94444444 76.9571529,9.01666667 77.4355207,9.15486111 C77.890843,9.29236111 78.2979793,9.52916667 78.6338843,9.85486111 C78.9774711,10.1861111 79.2519215,10.6333333 79.4474587,11.1833333 C79.5368471,11.4201389 79.601095,11.6875 79.6506777,11.9743056 M83.3742645,14.0659722 L83.3742645,14.0659722 C83.3644876,13.4347222 83.3225868,12.8347222 83.2394835,12.2729167 L83.2394835,12.2694444 C83.2010744,11.9909722 83.1473017,11.7180556 83.0914339,11.4576389 C83.0872438,11.4423611 83.0830537,11.43125 83.0823554,11.41875 C83.0229959,11.1708333 82.9615413,10.9256944 82.8910083,10.6930556 C82.8770413,10.6597222 82.8665661,10.6319444 82.8553926,10.6013889 C82.7862562,10.3840278 82.7171198,10.1784722 82.6333182,9.98055556 C82.6081777,9.92152778 82.5774504,9.86597222 82.5523099,9.80763889 C82.4831736,9.64027778 82.4042603,9.47638889 82.3260455,9.31875 C82.2729711,9.21805556 82.2108182,9.12777778 82.1556488,9.03333333 C82.0907025,8.92291667 82.0285496,8.81041667 81.9566198,8.70486111 C81.8274256,8.50833333 81.6842645,8.32152778 81.5355165,8.14444444 C80.2987438,6.68472222 78.4146033,5.94444444 75.9256942,5.94444444 C75.7978967,5.94444444 75.6742893,5.94722222 75.5513802,5.95138889 L75.5457934,5.95138889 C75.4871322,5.95416667 75.4270744,5.95694444 75.3712066,5.95972222 L75.2846116,5.96111111 L75.2846116,5.96666667 C74.1693512,6.03055556 73.1672231,6.26736111 72.3019711,6.67222222 C71.2767975,7.15625 70.4157355,7.81319444 69.7418306,8.62222222 C69.0700207,9.43402778 68.561624,10.3881944 68.2347975,11.4590278 C67.905876,12.5180556 67.7396694,13.6625 67.7396694,14.8534722 C67.7396694,16.1472222 67.8967975,17.3388889 68.1998802,18.4 C68.5057562,19.475 69.0113595,20.4111111 69.6992314,21.1798611 C70.3885,21.9541667 71.2900661,22.5583333 72.3871694,22.9763889 C73.4703058,23.3909722 74.8139256,23.5972222 76.3775248,23.5972222 C77.8636074,23.5972222 79.1478678,23.4638889 80.1939917,23.1923611 C80.2365909,23.1798611 80.2819835,23.16875 80.3280744,23.1576389 C80.4649504,23.1180556 80.5976364,23.0819444 80.7184504,23.0527778 C80.7568595,23.0375 80.800157,23.0291667 80.8357727,23.0180556 C81.0327066,22.9652778 81.1975165,22.9208333 81.3385826,22.8770833 C81.3651198,22.8680556 81.3902603,22.8618056 81.4223843,22.8534722 L81.713595,22.7659722 L81.7121983,22.7618056 C81.7987934,22.7340278 81.8525661,22.7201389 81.8574545,22.7159722 C82.2038347,22.6 82.4845702,22.35625 82.6479835,22.0333333 C82.807905,21.7048611 82.8253636,21.3375 82.7010579,20.9923611 L82.6172562,20.75625 C82.4140372,20.2006944 81.8497727,19.8097222 81.2429091,19.8097222 C81.1255868,19.8097222 81.0117562,19.8298611 80.902814,19.8541667 L80.9000207,19.8513889 L80.4656488,19.975 L80.3427397,20.0097222 C79.9097645,20.1340278 79.4921529,20.2354167 79.0892066,20.3194444 C78.6869587,20.4 78.2728388,20.4638889 77.8531322,20.5041667 C77.4439008,20.5472222 76.9704215,20.56875 76.4410744,20.56875 C74.8593182,20.56875 73.6274339,20.1270833 72.7747521,19.2604167 C71.9786364,18.4506944 71.5309959,17.3361111 71.4416074,15.9548611 L75.2846116,15.9548611 L81.3902603,15.9548611 L82.0041074,15.9548611 C82.7625124,15.9548611 83.3798512,15.3395833 83.3798512,14.5868056 L83.3798512,14.2777778 C83.3798512,14.2055556 83.3742645,14.1375 83.3742645,14.0659722" id="Fill-16"></path>
                <path d="M50.3850455,20.9625 L50.2991488,20.7256944 C50.0994215,20.16875 49.5358554,19.7791667 48.9303884,19.7791667 C48.8277314,19.7791667 48.7271694,19.7958333 48.6259091,19.8152778 L48.6231157,19.7972222 L48.3039711,19.8986111 C48.2369298,19.9208333 48.1775702,19.9347222 48.1161157,19.9604167 L47.9429256,20.0048611 C47.9366405,20.0076389 47.9345455,20.0104167 47.9289587,20.0152778 C47.5113471,20.1326389 47.1286529,20.2229167 46.7550372,20.2861111 C45.833219,20.4361111 45.0573554,20.5381944 44.2814917,20.5381944 C42.6431694,20.5381944 41.388938,20.0631944 40.5481281,19.1298611 C39.7052231,18.1902778 39.2736446,16.7625 39.2736446,14.8840278 C39.2736446,14.0243056 39.3860785,13.2145833 39.6137397,12.4791667 C39.8393058,11.7548611 40.1703223,11.1277778 40.6032975,10.6180556 C41.0313843,10.1097222 41.576095,9.70486111 42.2171777,9.41527778 C42.8617521,9.12430556 43.6236488,8.97916667 44.4749339,8.97916667 C45.3234256,8.97916667 46.0210744,8.98888889 46.6949793,9.12708333 C47.0378678,9.19791667 47.420562,9.29375 47.8318884,9.41666667 C47.8647107,9.43958333 47.8982314,9.45972222 47.9366405,9.46944444 L48.0574545,9.50138889 C48.4890331,9.62361111 48.5337273,9.64097222 48.5365207,9.64097222 C48.6650165,9.67708333 48.7984008,9.69583333 48.9303884,9.69583333 C49.5358554,9.69583333 50.0994215,9.30625 50.2991488,8.75069444 L50.3850455,8.51388889 C50.5142397,8.17013889 50.4918926,7.80208333 50.3319711,7.47361111 C50.1734463,7.14652778 49.8920124,6.90416667 49.5449339,6.79027778 C49.5211901,6.78263889 48.9031529,6.57986111 47.8835661,6.31527778 L47.8025579,6.30555556 C47.8025579,6.30555556 47.7941777,6.30694444 47.7899876,6.30694444 C46.8262686,6.06805556 45.6739959,5.94444444 44.3799587,5.94444444 C42.9630124,5.94444444 41.692719,6.17291667 40.6067893,6.61944444 C39.5145744,7.06944444 38.5906612,7.70208333 37.8504132,8.50416667 C37.111562,9.30208333 36.5500909,10.2618056 36.1729835,11.3576389 C35.8000661,12.4430556 35.6157025,13.6291667 35.6157025,14.8840278 C35.6157025,16.1583333 35.7700372,17.3368056 36.0752149,18.3833333 C36.383186,19.4486111 36.8818058,20.375 37.5599008,21.1326389 C38.2359008,21.8958333 39.1423554,22.5 40.2415537,22.9291667 C41.3379587,23.3520833 42.6850702,23.5673611 44.2535579,23.5673611 C45.4833471,23.5673611 46.6237479,23.4555556 47.6461281,23.2270833 C48.0015868,23.1465278 48.3738058,23.0513889 48.7830372,22.9347222 L49.0127934,22.8708333 L49.01,22.8486111 C49.3389215,22.7534722 49.5281736,22.6923611 49.5449339,22.6868056 C49.8920124,22.5694444 50.1734463,22.3270833 50.3319711,22.0020833 C50.4918926,21.6756944 50.5142397,21.3069444 50.3850455,20.9625" id="Fill-18"></path>
                <path d="M95.5827686,21.475 L95.5471529,21.3326389 C95.3921198,20.7215278 94.8481074,20.29375 94.2300702,20.29375 C94.1183347,20.29375 94.0114876,20.3076389 93.9332727,20.3291667 L93.505186,20.3972222 L93.5023926,20.3972222 L93.2488926,20.4319444 C92.849438,20.4819444 92.4178595,20.5083333 91.9660289,20.5083333 C91.0896033,20.5083333 90.4345537,20.2909722 90.0190372,19.8590278 C89.6028223,19.4263889 89.3926198,18.6020833 89.3926198,17.4055556 L89.3926198,9.42847222 L90.481343,9.42847222 L92.310314,9.42847222 L93.3990372,9.42847222 C94.1574421,9.42847222 94.7719876,8.81597222 94.7719876,8.06111111 L94.7719876,7.89166667 C94.7719876,7.13611111 94.1574421,6.52361111 93.3990372,6.52361111 L92.310314,6.52361111 L90.481343,6.52361111 L89.3926198,6.52361111 L89.3926198,6.01944444 L89.3926198,4.65208333 L89.3926198,3.14375 C89.3926198,2.39027778 88.7738843,1.77777778 88.0154793,1.77777778 L87.2696446,1.77777778 C86.511938,1.77777778 85.8966942,2.39027778 85.8966942,3.14375 L85.8966942,4.65208333 L85.8966942,6.01944444 L85.8966942,18.1076389 C85.8966942,19.09375 86.0307769,19.9291667 86.2968471,20.5972222 C86.5664091,21.2715278 86.9553884,21.83125 87.4463264,22.2631944 C87.9337727,22.6909722 88.5245744,23.0013889 89.2068595,23.18125 C89.8667975,23.3569444 90.6007603,23.4472222 91.3891942,23.4472222 C91.7879504,23.4472222 92.1629628,23.4333333 92.5205165,23.4090278 L92.5261033,23.4090278 L92.5742893,23.4090278 C92.593843,23.4090278 92.9779339,23.3979167 93.5903843,23.3020833 C94.2307686,23.2076389 94.5687686,23.1236111 94.5806405,23.1222222 C94.9381942,23.0388889 95.2398802,22.8173611 95.4277355,22.5083333 C95.617686,22.19375 95.672157,21.8284722 95.5827686,21.475" id="Fill-20"></path>
                <path d="M95.5827686,21.475 L95.5471529,21.3326389 C95.3921198,20.7215278 94.8481074,20.29375 94.2300702,20.29375 C94.1183347,20.29375 94.0114876,20.3076389 93.9332727,20.3291667 L93.505186,20.3972222 L93.5023926,20.3972222 L93.2488926,20.4319444 C92.849438,20.4819444 92.4178595,20.5083333 91.9660289,20.5083333 C91.0896033,20.5083333 90.4345537,20.2909722 90.0190372,19.8590278 C89.6028223,19.4263889 89.3926198,18.6020833 89.3926198,17.4055556 L89.3926198,9.42847222 L90.481343,9.42847222 L92.310314,9.42847222 L93.3990372,9.42847222 C94.1574421,9.42847222 94.7719876,8.81597222 94.7719876,8.06111111 L94.7719876,7.89166667 C94.7719876,7.13611111 94.1574421,6.52361111 93.3990372,6.52361111 L92.310314,6.52361111 L90.481343,6.52361111 L89.3926198,6.52361111 L89.3926198,6.01944444 L89.3926198,4.65208333 L89.3926198,3.14375 C89.3926198,2.39027778 88.7738843,1.77777778 88.0154793,1.77777778 L87.2696446,1.77777778 C86.511938,1.77777778 85.8966942,2.39027778 85.8966942,3.14375 L85.8966942,4.65208333 L85.8966942,6.01944444 L85.8966942,18.1076389 C85.8966942,19.09375 86.0307769,19.9291667 86.2968471,20.5972222 C86.5664091,21.2715278 86.9553884,21.83125 87.4463264,22.2631944 C87.9337727,22.6909722 88.5245744,23.0013889 89.2068595,23.18125 C89.8667975,23.3569444 90.6007603,23.4472222 91.3891942,23.4472222 C91.7879504,23.4472222 92.1629628,23.4333333 92.5205165,23.4090278 L92.5261033,23.4090278 L92.5742893,23.4090278 C92.593843,23.4090278 92.9779339,23.3979167 93.5903843,23.3020833 C94.2307686,23.2076389 94.5687686,23.1236111 94.5806405,23.1222222 C94.9381942,23.0388889 95.2398802,22.8173611 95.4277355,22.5083333 C95.617686,22.19375 95.672157,21.8284722 95.5827686,21.475" id="Fill-22"></path>
            </g>
        </g>
    </g>
</svg>